<?xml version="1.0" standalone="no"?>
<!DOCTYPE svg PUBLIC "-//W3C//DTD SVG 20010904//EN"
 "http://www.w3.org/TR/2001/REC-SVG-20010904/DTD/svg10.dtd">
<svg version="1.0" xmlns="http://www.w3.org/2000/svg"
 width="500.000000pt" height="500.000000pt" viewBox="0 0 500.000000 500.000000"
 preserveAspectRatio="xMidYMid meet">

<g transform="translate(0.000000,500.000000) scale(0.100000,-0.100000)"
fill="#FFFFFF" stroke="none">
<path d="M3244 2947 c-67 -17 -133 -57 -174 -104 -80 -91 -126 -257 -116 -418
15 -216 76 -343 198 -411 51 -28 57 -29 183 -28 100 1 144 5 190 20 l60 20 3
252 2 252 -145 0 -145 0 0 -80 0 -80 60 0 60 0 0 -109 c0 -124 2 -121 -88
-121 -40 0 -67 6 -90 20 -128 78 -133 499 -7 598 62 49 163 54 245 12 23 -12
44 -20 46 -18 13 13 53 143 47 149 -5 5 -35 18 -68 29 -76 26 -194 34 -261 17z"/>
<path d="M140 2865 l0 -74 149 -3 150 -3 -155 -333 c-149 -321 -154 -334 -154
-397 l0 -65 255 0 255 0 0 80 0 80 -156 0 c-121 0 -155 3 -151 13 3 6 73 158
156 336 141 302 151 328 151 382 l0 59 -250 0 -250 0 0 -75z"/>
<path d="M680 2928 c0 -7 41 -221 91 -475 l91 -463 104 0 c99 0 104 1 109 23
19 82 96 503 101 555 4 34 10 62 14 62 4 0 10 -30 14 -67 6 -55 81 -467 101
-550 5 -22 10 -23 109 -23 l105 0 10 53 c63 315 171 875 171 885 0 9 -25 12
-90 12 -49 0 -90 -3 -90 -7 0 -3 -20 -117 -46 -252 -25 -135 -51 -290 -59
-345 -8 -54 -16 -100 -18 -102 -2 -3 -8 24 -11 58 -4 35 -32 191 -62 348 -29
157 -54 288 -54 293 0 4 -35 7 -79 7 l-78 0 -61 -312 c-34 -172 -65 -335 -69
-363 l-9 -50 -12 100 c-7 55 -34 217 -60 360 l-47 260 -87 3 c-67 2 -88 0 -88
-10z"/>
<path d="M1790 2465 l0 -475 95 0 95 0 0 475 0 475 -95 0 -95 0 0 -475z"/>
<path d="M2150 2465 l0 -475 86 0 86 0 -3 329 c-2 181 -1 324 2 318 4 -7 66
-155 139 -329 l133 -318 108 0 109 0 0 475 0 475 -85 0 -85 0 -2 -317 -3 -317
-135 317 -135 317 -107 0 -108 0 0 -475z"/>
<path d="M3750 2465 l0 -475 220 0 221 0 -3 78 -3 77 -127 3 -128 3 0 394 0
395 -90 0 -90 0 0 -475z"/>
<path d="M4290 2465 l0 -475 90 0 90 0 0 475 0 475 -90 0 -90 0 0 -475z"/>
<path d="M4669 2177 c-47 -36 -53 -119 -13 -166 22 -27 32 -31 75 -31 72 0 99
29 99 105 0 75 -27 105 -97 105 -26 0 -55 -6 -64 -13z"/>
</g>
</svg>
