<?xml version="1.0" standalone="no"?>
<!DOCTYPE svg PUBLIC "-//W3C//DTD SVG 20010904//EN"
 "http://www.w3.org/TR/2001/REC-SVG-20010904/DTD/svg10.dtd">
<svg version="1.0" xmlns="http://www.w3.org/2000/svg"
 width="500.000000pt" height="500.000000pt" viewBox="0 0 500.000000 500.000000"
 preserveAspectRatio="xMidYMid meet">

<g transform="translate(0.000000,500.000000) scale(0.100000,-0.100000)"
fill="#FFFFFF" stroke="none">
<path d="M143 4203 c-40 -8 -71 -50 -78 -106 -3 -29 -5 -734 -3 -1567 2 -1208
6 -1520 16 -1537 32 -57 -133 -53 2424 -53 2321 0 2353 0 2385 20 18 11 36 32
40 47 5 15 8 727 8 1580 l0 1553 -33 32 -32 33 -2353 1 c-1293 1 -2362 -1
-2374 -3z m4687 -1628 l0 -1525 -2330 0 -2330 0 0 1525 0 1525 2330 0 2330 0
0 -1525z"/>
<path d="M3202 2989 c-90 -15 -162 -62 -212 -137 -108 -162 -102 -481 12 -639
20 -27 55 -58 88 -77 53 -30 59 -31 170 -31 82 1 133 6 178 19 l62 19 0 228 0
229 -135 0 -135 0 0 -70 0 -70 55 0 55 0 0 -99 c0 -65 -4 -102 -12 -107 -6 -4
-36 -7 -67 -8 -72 0 -102 20 -138 92 -27 54 -28 64 -28 202 0 136 2 149 26
201 38 80 75 104 164 104 51 0 81 -6 112 -21 l41 -21 25 69 25 69 -27 13 c-63
33 -178 48 -259 35z"/>
<path d="M340 2910 l0 -70 135 0 c74 0 135 -3 135 -7 0 -3 -63 -142 -140 -308
-128 -276 -140 -307 -140 -358 l0 -57 235 0 235 0 0 75 0 75 -140 0 c-77 0
-140 3 -140 6 0 3 61 137 136 297 119 254 137 300 142 355 l4 62 -231 0 -231
0 0 -70z"/>
<path d="M833 2958 c3 -13 38 -185 76 -383 39 -198 76 -384 82 -412 l10 -53
94 0 c81 0 94 2 99 18 10 32 85 437 92 492 10 84 20 89 28 15 6 -55 74 -425
93 -502 5 -22 10 -23 98 -23 81 0 94 2 99 18 6 19 166 836 166 846 0 3 -37 6
-83 6 l-83 0 -48 -267 c-26 -148 -51 -293 -55 -323 -9 -67 -5 -84 -72 280 -28
157 -54 291 -56 298 -4 8 -28 12 -73 12 -62 0 -68 -2 -73 -22 -10 -42 -96
-482 -110 -558 l-13 -75 -13 94 c-7 51 -32 197 -55 325 l-42 231 -83 3 c-82 3
-83 3 -78 -20z"/>
<path d="M1850 2545 l0 -435 85 0 85 0 0 435 0 435 -85 0 -85 0 0 -435z"/>
<path d="M2180 2545 l0 -435 75 0 75 0 2 299 3 299 125 -299 125 -299 98 0 97
0 0 435 0 435 -75 0 -75 0 -2 -292 -3 -292 -125 292 -125 292 -97 0 -98 0 0
-435z"/>
<path d="M3640 2545 l0 -435 200 0 200 0 0 75 0 75 -115 0 -115 0 0 360 0 360
-85 0 -85 0 0 -435z"/>
<path d="M4140 2545 l0 -435 85 0 85 0 0 435 0 435 -85 0 -85 0 0 -435z"/>
<path d="M4504 2290 c-57 -23 -74 -121 -29 -165 33 -34 102 -35 132 -2 46 50
33 139 -22 163 -39 16 -51 16 -81 4z"/>
</g>
</svg>
