<?xml version="1.0" standalone="no"?>
<!DOCTYPE svg PUBLIC "-//W3C//DTD SVG 20010904//EN" "http://www.w3.org/TR/2001/REC-SVG-20010904/DTD/svg10.dtd">
<svg version="1.0" xmlns="http://www.w3.org/2000/svg" width="500.000000pt" height="500.000000pt" viewBox="0 0 500.000000 500.000000" preserveAspectRatio="xMidYMid meet">

<g transform="translate(0.000000,500.000000) scale(0.100000,-0.100000)" fill="#000000" stroke="none">
<path fill="#FFFFFF" d="M1100 2780 l0 -60 100 0 c55 0 100 -1 100 -3 0 -2 -22 -59 -50 -127 -27 -68 -50 -127 -50 -132 0 -4 29 -8 64 -8 l64 0 76 190 c42 105 76 192 76 195 0 3 -85 5 -190 5 l-190 0 0 -60z"/>
<path fill="#FFFFFF" d="M1766 2685 c-33 -86 -62 -158 -66 -160 -5 -3 -11 6 -14 19 -3 13 -20 60 -37 105 l-31 81 -60 0 c-53 0 -60 -2 -56 -18 13 -48 192 -502 198 -502 4 0 45 98 90 218 46 119 86 223 90 230 4 8 43 -81 95 -217 48 -127 91 -231 95 -231 5 0 10 6 13 13 70 179 187 489 187 497 0 6 -25 10 -59 10 l-59 0 -38 -104 c-21 -57 -41 -103 -44 -101 -4 2 -32 74 -65 159 l-58 156 -61 0 -62 0 -58 -155z"/>
<path fill="#FFFFFF" d="M2380 2580 l0 -260 -35 0 -35 0 0 -55 0 -55 135 0 135 0 0 55 0 55 -35 0 -35 0 0 260 0 260 -65 0 -65 0 0 -260z"/>
<path fill="#FFFFFF" d="M2590 2600 l0 -240 60 0 59 0 3 131 3 131 143 -206 143 -206 60 0 59 0 0 315 0 315 -60 0 -60 0 -2 -202 -3 -202 -140 199 -140 200 -62 3 -63 3 0 -241z"/>
<path fill="#FFFFFF" d="M3369 2822 c-149 -39 -218 -132 -219 -298 -1 -217 116 -313 383 -314 l97 0 0 195 0 195 -125 0 -125 0 0 -60 0 -60 65 0 65 0 0 -75 0 -75 -45 0 c-49 0 -107 20 -139 48 -53 47 -71 163 -37 237 37 81 90 104 239 105 l102 0 0 60 0 60 -97 -1 c-59 0 -125 -7 -164 -17z"/>
<path fill="#FFFFFF" d="M3650 2645 l0 -195 60 0 60 0 0 195 0 195 -60 0 -60 0 0 -195z"/>
<path fill="#FFFFFF" d="M4090 2580 l0 -260 -35 0 -35 0 0 -55 0 -55 136 0 135 0 -3 53 c-3 51 -4 52 -35 55 l-33 3 -2 257 -3 257 -62 3 -63 3 0 -261z"/>
<path fill="#FFFFFF" d="M945 2748 c-12 -29 -71 -156 -130 -283 -59 -126 -109 -236 -112 -242 -4 -10 10 -13 51 -13 l56 0 29 58 c52 102 241 513 241 523 0 5 -25 9 -56 9 l-55 0 -24 -52z"/>
<path fill="#FFFFFF" d="M473 2597 c-232 -116 -231 -113 -55 -190 70 -31 153 -67 185 -81 l57 -26 0 33 0 33 -145 60 -146 61 146 68 c144 68 145 69 145 102 0 18 -1 33 -2 32 -2 0 -85 -41 -185 -92z"/>
<path fill="#FFFFFF" d="M4340 2656 c0 -33 1 -33 145 -101 l145 -69 -145 -60 c-145 -60 -145 -60 -145 -92 l0 -33 181 80 c100 43 184 79 185 79 2 0 4 10 4 23 0 19 -27 36 -185 115 l-185 92 0 -34z"/>
<path fill="#FFFFFF" d="M1124 2275 c-13 -31 -24 -58 -24 -60 0 -3 86 -5 190 -5 l190 0 0 60 0 60 -166 0 -165 0 -25 -55z"/>
<path fill="#FFFFFF" d="M3650 2270 l0 -60 175 0 175 0 0 60 0 60 -175 0 -175 0 0 -60z"/>
</g>
</svg>
