<?xml version="1.0" standalone="no"?>
<!DOCTYPE svg PUBLIC "-//W3C//DTD SVG 20010904//EN"
 "http://www.w3.org/TR/2001/REC-SVG-20010904/DTD/svg10.dtd">
<svg version="1.0" xmlns="http://www.w3.org/2000/svg"
 width="700.000000pt" height="700.000000pt" viewBox="0 0 700.000000 700.000000"
 preserveAspectRatio="xMidYMid meet">
<metadata>
Created by potrace 1.14, written by Peter Selinger 2001-2017
</metadata>
<g transform="translate(0.000000,700.000000) scale(0.100000,-0.100000)"
fill="#000000" stroke="none">
<path d="M758 3974 c-2 -1 -30 -4 -63 -5 -93 -3 -93 -3 -89 -110 1 -50 5 -93
7 -95 3 -3 78 -7 168 -10 90 -3 168 -9 173 -14 4 -4 -28 -100 -74 -217 -45
-114 -84 -223 -87 -241 l-6 -33 105 2 c58 1 110 4 116 8 11 7 198 472 248 615
27 79 26 87 -4 94 -21 4 -490 10 -494 6z"/>
<path d="M1937 3965 c-23 -11 -62 -101 -182 -420 l-64 -170 -14 35 c-8 19 -40
106 -72 193 l-58 157 -48 1 c-138 4 -169 1 -169 -11 0 -22 239 -645 322 -837
17 -40 34 -73 38 -73 11 0 80 166 245 593 61 158 91 224 97 214 4 -9 42 -105
84 -214 41 -109 79 -207 84 -218 5 -11 39 -94 75 -185 37 -91 69 -171 72 -177
3 -7 9 -13 13 -13 7 0 160 359 160 375 0 3 9 24 19 48 19 41 99 248 160 413
35 96 41 91 -98 90 l-95 -1 -72 -195 c-54 -145 -74 -190 -80 -175 -4 11 -17
45 -29 75 -12 30 -60 155 -106 278 l-84 222 -50 1 c-27 0 -67 2 -88 3 -21 1
-48 -3 -60 -9z"/>
<path d="M2963 3972 c-14 -2 -25 -13 -29 -26 -3 -13 -6 -225 -8 -472 l-2 -449
-62 0 -62 1 0 -98 c0 -54 3 -98 8 -98 11 -1 414 -1 443 -1 l26 1 -2 93 c-1 50
-3 95 -4 98 0 3 -28 5 -61 4 l-60 -2 0 477 0 476 -82 0 c-46 -1 -93 -2 -105
-4z"/>
<path d="M3348 3972 l-36 -3 -4 -72 c-2 -40 -3 -236 -3 -437 l0 -365 104 2
c57 2 106 5 109 8 5 4 8 105 12 323 1 61 5 114 9 116 3 2 119 -158 256 -356
l250 -359 108 3 c59 1 107 4 108 7 3 21 3 1100 0 1114 -3 15 -16 17 -107 17
l-103 0 -2 -277 c-1 -153 -1 -320 -1 -370 0 -51 -3 -93 -7 -93 -3 1 -122 167
-265 370 l-259 370 -41 1 c-22 0 -52 1 -66 2 -14 1 -42 1 -62 -1z"/>
<path d="M5269 3972 c-31 -3 -37 -7 -41 -30 -2 -15 -5 -174 -7 -353 l-3 -327
114 2 113 1 -3 349 c-1 192 -3 351 -5 352 -4 4 -132 9 -168 6z"/>
<path d="M6018 3501 l-3 -476 -55 -3 c-30 -1 -59 -4 -65 -6 -8 -3 -12 -129 -6
-177 1 -3 109 -7 241 -8 l240 -2 0 94 c0 106 1 104 -72 102 -27 -1 -49 1 -49
4 -2 8 -7 334 -9 674 l-3 267 -46 1 c-25 0 -74 2 -108 4 l-63 3 -2 -477z"/>
<path d="M4790 3950 c-119 -22 -193 -50 -270 -102 -131 -87 -200 -232 -203
-426 -3 -200 36 -326 131 -421 71 -71 210 -138 322 -156 19 -3 48 -7 63 -9 27
-5 172 -8 290 -7 l57 1 0 355 c0 195 -3 355 -7 356 -11 0 -372 0 -403 0 l-25
-1 0 -110 c0 -103 1 -110 20 -111 11 -1 58 -1 105 -1 l85 0 1 -143 0 -142 -36
4 c-210 25 -316 85 -355 202 -42 127 -32 276 24 368 27 43 114 110 159 122 44
12 153 20 315 23 l118 3 -5 105 c-2 58 -5 106 -5 108 -3 11 -302 -4 -381 -18z"/>
<path d="M705 3029 c-26 -8 -34 -19 -59 -86 -30 -81 -28 -104 10 -109 17 -3
518 -7 602 -5 l33 1 -3 103 -3 102 -275 1 c-151 0 -288 -3 -305 -7z"/>
<path d="M5221 2934 c-1 -78 2 -104 11 -104 48 -2 612 0 614 2 3 4 6 90 5 155
l-1 51 -314 0 -314 0 -1 -104z"/>
<path d="M4904 1905 c-7 -30 4 -172 22 -265 9 -46 14 -375 6 -410 -7 -33 -11
-36 -67 -47 -33 -7 -82 -15 -110 -18 -27 -3 -61 -8 -75 -9 -101 -14 -169 -22
-258 -31 l-72 -7 32 57 c18 32 60 83 92 114 124 118 130 126 102 137 -24 9
-84 -26 -138 -79 -52 -51 -128 -160 -128 -183 0 -28 -46 -42 -155 -49 -188
-11 -236 -23 -228 -55 8 -29 75 -56 213 -86 69 -15 130 -31 136 -36 7 -4 14
-22 17 -38 10 -46 53 -104 97 -129 80 -45 216 -30 289 32 18 15 39 27 46 27 8
0 28 18 46 40 47 58 87 67 140 29 33 -23 52 -24 69 -4 13 16 67 20 86 7 6 -4
19 -21 29 -39 23 -39 59 -57 85 -43 10 6 40 28 65 50 45 39 48 40 123 40 49 0
86 -6 102 -15 85 -49 118 -52 160 -13 29 27 67 36 114 27 41 -7 120 -7 146 1
10 4 16 -3 18 -23 4 -35 31 -50 63 -34 32 16 39 57 10 57 -25 0 -29 31 -7 53
8 7 47 26 88 41 136 50 186 103 190 199 3 52 -21 87 -57 87 -34 0 -139 -58
-180 -100 l-37 -38 -44 19 c-47 21 -146 27 -594 34 -282 4 -257 2 -257 18 0
31 -15 241 -18 260 -2 12 -6 45 -10 72 -24 201 -69 328 -127 364 -15 9 -19 7
-24 -14z m101 -322 c4 -38 9 -76 11 -85 14 -78 21 -294 10 -305 -18 -19 -26
29 -31 197 -4 102 -8 202 -9 223 -5 66 12 39 19 -30z m1192 -393 c-7 -55 -39
-95 -102 -125 -60 -30 -92 -30 -87 0 5 31 29 79 49 97 29 27 106 68 127 68 16
0 18 -6 13 -40z m-412 -45 c71 -9 118 -22 139 -38 17 -12 17 -18 6 -51 -14
-44 -53 -67 -116 -69 -43 -2 -47 1 -102 61 -32 34 -63 62 -69 62 -25 0 -41
-36 -42 -98 -1 -24 -7 -35 -23 -41 -39 -14 -65 2 -138 87 -39 45 -77 82 -84
82 -20 0 -41 -29 -66 -93 -26 -66 -43 -79 -108 -79 -58 0 -68 13 -77 100 -4
37 -8 69 -9 72 0 3 13 7 29 11 41 8 597 3 660 -6z m-729 -102 l6 -73 -26 0
c-18 0 -26 6 -27 18 -1 9 -3 40 -5 67 -3 28 -2 61 1 74 6 24 6 24 25 5 13 -13
21 -41 26 -91z m-138 37 l-11 -41 -33 37 c-34 36 -35 37 -55 18 -11 -10 -31
-42 -45 -72 -27 -60 -44 -63 -58 -11 -17 62 -46 65 -71 9 -22 -48 -26 -49
-184 -37 -52 4 -100 12 -107 18 -15 12 -20 68 -6 70 4 0 15 2 25 4 9 2 56 6
102 10 47 3 93 8 103 10 10 1 45 6 77 10 33 4 68 9 77 11 9 1 48 6 85 9 37 4
70 9 72 11 2 2 12 -1 21 -6 16 -8 17 -15 8 -50z m-640 -38 c3 -31 3 -32 -38
-32 -87 0 -242 31 -228 45 3 3 45 8 94 11 49 4 90 7 91 8 1 1 19 2 40 1 35 0
38 -2 41 -33z m1102 -2 c23 -45 26 -69 8 -71 -7 -1 -20 -2 -28 -3 -30 -3 -38
13 -28 56 15 71 20 72 48 18z m-522 -58 c2 -7 -6 -12 -17 -12 -21 0 -27 11
-14 24 9 9 26 2 31 -12z m832 -2 c0 -5 -4 -10 -10 -10 -5 0 -10 5 -10 10 0 6
5 10 10 10 6 0 10 -4 10 -10z m-1119 -55 c73 -13 89 -46 44 -90 -17 -18 -36
-25 -67 -26 -64 -2 -79 0 -127 18 -35 12 -47 23 -62 57 -17 38 -17 41 -1 48
18 7 159 2 213 -7z m609 -30 c-10 -12 -16 -13 -26 -4 -20 16 -18 19 12 19 22
0 25 -2 14 -15z"/>
<path d="M6193 794 c-9 -25 12 -38 31 -19 9 9 14 21 11 26 -10 14 -35 10 -42
-7z"/>
</g>
</svg>
