<?xml version="1.0" standalone="no"?>
<!DOCTYPE svg PUBLIC "-//W3C//DTD SVG 20010904//EN"
 "http://www.w3.org/TR/2001/REC-SVG-20010904/DTD/svg10.dtd">
<svg version="1.0" xmlns="http://www.w3.org/2000/svg"
 width="500.000000pt" height="500.000000pt" viewBox="0 0 500.000000 500.000000"
 preserveAspectRatio="xMidYMid meet">
<metadata>
Created by potrace 1.14, written by Peter Selinger 2001-2017
</metadata>
<g transform="translate(0.000000,500.000000) scale(0.100000,-0.100000)"
fill="#000000" stroke="none">
<path d="M940 3044 c-308 -48 -477 -148 -571 -339 -63 -130 -74 -185 -73 -380
0 -156 2 -176 27 -250 90 -270 300 -419 647 -456 52 -5 167 -9 255 -7 l160 3
0 130 0 130 -215 1 c-304 1 -396 27 -500 141 -78 85 -94 140 -94 313 0 128 2
152 22 202 63 156 237 257 445 258 l67 0 0 -160 0 -160 140 0 140 0 -2 288 -3
287 -210 1 c-115 1 -221 0 -235 -2z"/>
<path d="M1902 2918 l3 -133 226 -3 227 -2 -124 -310 c-68 -171 -124 -312
-124 -315 0 -3 66 -4 147 -3 l146 3 178 440 c97 242 175 443 173 447 -3 5
-196 8 -430 8 l-425 0 3 -132z"/>
<path d="M3785 3036 c-208 -48 -355 -164 -445 -350 -67 -139 -84 -224 -78
-390 9 -214 68 -358 207 -497 117 -117 249 -173 433 -186 423 -29 738 278 738
717 0 219 -67 390 -205 531 -71 72 -150 121 -254 156 -63 22 -98 27 -206 29
-86 3 -150 -1 -190 -10z m257 -247 c159 -34 280 -163 318 -340 18 -80 8 -229
-19 -304 -44 -123 -128 -213 -239 -256 -79 -31 -224 -31 -299 -2 -166 66 -261
212 -271 414 -15 328 217 550 510 488z"/>
<path d="M3879 2443 c-80 -50 -81 -176 -2 -228 17 -11 46 -19 73 -19 81 0 130
52 130 140 0 41 -5 51 -39 85 -34 35 -44 39 -87 39 -27 0 -61 -8 -75 -17z"/>
<path d="M1986 1848 c-52 -124 -86 -214 -86 -225 0 -11 79 -13 428 -11 l427 3
0 130 0 130 -378 3 -378 2 -13 -32z"/>
<path d="M4098 769 c-2 -7 2 -55 10 -108 12 -85 12 -214 0 -227 -6 -5 -221
-34 -255 -34 -21 0 -23 2 -13 23 6 12 35 43 63 69 38 35 47 48 33 48 -33 0
-80 -37 -111 -88 l-30 -50 -87 -7 c-65 -5 -88 -10 -88 -20 0 -20 27 -32 104
-46 56 -11 67 -16 72 -36 17 -65 122 -96 177 -53 14 11 30 20 36 20 6 0 16 9
23 20 14 23 73 28 81 8 4 -10 7 -10 18 0 20 19 56 15 62 -8 8 -33 35 -35 66
-6 21 20 37 26 73 26 28 0 50 -6 58 -15 16 -19 44 -19 64 0 19 20 126 17 142
-4 6 -8 18 -11 28 -8 17 7 22 27 6 27 -5 0 -10 6 -10 13 0 7 23 20 51 30 27
10 59 27 70 38 20 20 26 83 9 94 -16 10 -75 -13 -100 -40 -20 -21 -26 -23 -44
-12 -14 8 -89 13 -218 15 l-197 4 -5 41 c-2 23 -9 78 -14 122 -12 109 -58 211
-74 164z m60 -279 c0 -47 -2 -58 -8 -40 -4 14 -8 66 -8 115 1 80 2 84 8 40 5
-27 8 -79 8 -115z m582 -54 c0 -23 -42 -65 -72 -72 -46 -10 -30 43 20 70 35
19 52 20 52 2z m-223 -24 c40 -4 78 -13 84 -19 20 -20 1 -50 -38 -58 -33 -6
-40 -3 -63 24 -14 17 -30 31 -36 31 -13 0 -24 -23 -24 -51 0 -33 -34 -21 -74
26 -22 25 -43 45 -48 45 -5 0 -17 -20 -28 -45 -17 -39 -23 -45 -49 -45 -34 0
-36 2 -45 52 -6 34 -5 37 21 41 47 7 224 6 300 -1z m-407 -27 c0 -27 -15 -34
-24 -10 -9 25 -36 17 -47 -15 -13 -35 -24 -39 -32 -10 -3 11 -10 20 -17 20 -7
0 -14 -9 -17 -20 -4 -17 -14 -20 -57 -20 -68 0 -96 9 -96 29 0 14 22 19 138
32 75 9 140 17 145 17 4 1 7 -9 7 -23z m60 3 c0 -13 3 -33 6 -45 5 -17 2 -23
-10 -23 -12 0 -16 10 -16 45 0 25 5 45 10 45 6 0 10 -10 10 -22z m-380 -29 c0
-17 -5 -20 -27 -15 -16 3 -48 8 -73 13 l-45 7 50 7 c92 11 95 11 95 -12z m560
-31 c0 -5 -11 -8 -25 -8 -29 0 -29 -1 -14 37 l11 28 13 -25 c8 -14 14 -28 15
-32z m-275 12 c3 -5 1 -10 -4 -10 -6 0 -11 5 -11 10 0 6 2 10 4 10 3 0 8 -4
11 -10z m-105 -48 c0 -29 -21 -42 -67 -42 -30 0 -49 6 -63 20 -33 33 -24 40
55 40 66 0 75 -2 75 -18z m267 2 c-3 -3 -12 -4 -19 -1 -8 3 -5 6 6 6 11 1 17
-2 13 -5z"/>
<path d="M4425 569 c-10 -15 1 -23 20 -15 9 3 13 10 10 16 -8 13 -22 13 -30
-1z"/>
</g>
</svg>
